<svg xmlns="http://www.w3.org/2000/svg" xmlns:xlink="http://www.w3.org/1999/xlink" viewBox="0 0 64 64"><defs><style>.cls-1{fill:url(#linear-gradient);}.cls-2{fill:url(#linear-gradient-2);}.cls-3{fill:url(#linear-gradient-3);}.cls-4{fill:url(#linear-gradient-4);}.cls-5{fill:url(#linear-gradient-5);}.cls-6{fill:url(#linear-gradient-6);}.cls-7{fill:url(#linear-gradient-7);}.cls-8{fill:url(#linear-gradient-8);}</style><linearGradient id="linear-gradient" x1="18.08" y1="32" x2="40.73" y2="32" gradientUnits="userSpaceOnUse"><stop offset="0" stop-color="#9f2fff"/><stop offset="1" stop-color="#0bb1d3"/></linearGradient><linearGradient id="linear-gradient-2" x1="38.26" y1="35.63" x2="45.94" y2="35.63" xlink:href="#linear-gradient"/><linearGradient id="linear-gradient-3" x1="38.26" y1="31.48" x2="45.94" y2="31.48" xlink:href="#linear-gradient"/><linearGradient id="linear-gradient-4" x1="38.26" y1="27.33" x2="45.94" y2="27.33" xlink:href="#linear-gradient"/><linearGradient id="linear-gradient-5" x1="38.26" y1="23.19" x2="45.94" y2="23.19" xlink:href="#linear-gradient"/><linearGradient id="linear-gradient-6" x1="38.26" y1="19.04" x2="45.94" y2="19.04" xlink:href="#linear-gradient"/><linearGradient id="linear-gradient-7" x1="38.29" y1="14.89" x2="45.96" y2="14.89" xlink:href="#linear-gradient"/><linearGradient id="linear-gradient-8" x1="22.24" y1="33.56" x2="36.57" y2="33.56" xlink:href="#linear-gradient"/></defs><g id="_42.thermometer" data-name="42.thermometer"><path class="cls-1" d="M36.11,39.44V10.74a6.71,6.71,0,0,0-13.41,0v28.7C13.88,45.73,18.56,60.06,29.41,60,40.25,60.06,44.94,45.73,36.11,39.44ZM29.41,58c-9.18.07-12.86-12.21-5.15-17.19a1.15,1.15,0,0,0,.44-.84V10.74a4.71,4.71,0,0,1,9.41,0V39.93a1.22,1.22,0,0,0,.45.84C42.26,45.74,38.58,58,29.41,58Z"/><path class="cls-2" d="M45,34.63h-5.7a1,1,0,0,0,0,2H45A1,1,0,0,0,45,34.63Z"/><path class="cls-3" d="M45,30.48h-5.7a1,1,0,0,0,0,2H45A1,1,0,0,0,45,30.48Z"/><path class="cls-4" d="M45,26.33h-5.7a1,1,0,0,0,0,2H45A1,1,0,0,0,45,26.33Z"/><path class="cls-5" d="M45,22.19h-5.7a1,1,0,0,0,0,2H45A1,1,0,0,0,45,22.19Z"/><path class="cls-6" d="M45,18h-5.7a1,1,0,0,0,0,2H45A1,1,0,0,0,45,18Z"/><path class="cls-7" d="M39.26,15.89H45a1,1,0,0,0,0-2h-5.7A1,1,0,0,0,39.26,15.89Z"/><path class="cls-8" d="M30.41,41.45V12.3a1,1,0,0,0-2,0V41.45c-8.78,1.42-7.95,14.14,1,14.36C38.36,55.59,39.19,42.87,30.41,41.45Zm-1,12.36c-6.9-.22-6.9-10.22,0-10.44C36.31,43.59,36.31,53.6,29.41,53.81Z"/></g></svg>